<svg width="20.000000" height="20.000000" viewBox="0 0 20 20" fill="none" xmlns="http://www.w3.org/2000/svg" xmlns:xlink="http://www.w3.org/1999/xlink">
	<desc>
			Created with Pixso.
	</desc>
	<defs/>
	<path id="icon" d="M10.71 15C10.55 14.84 10.55 14.58 10.71 14.41L14.3 10.83L2.91 10.83C2.68 10.83 2.5 10.64 2.5 10.41L2.5 9.58C2.5 9.35 2.68 9.16 2.91 9.16L14.3 9.16L10.71 5.57C10.55 5.41 10.55 5.15 10.71 4.99L11.3 4.4C11.47 4.23 11.73 4.23 11.89 4.4L17.2 9.7C17.36 9.86 17.36 10.13 17.2 10.29L11.89 15.59C11.73 15.75 11.47 15.75 11.3 15.59L10.71 15Z" fill="#F1F3F6" fill-opacity="0.950000" fill-rule="nonzero"/>
</svg>
