<svg width="50.000000" height="50.000000" viewBox="0 0 50 50" fill="none" xmlns="http://www.w3.org/2000/svg" xmlns:xlink="http://www.w3.org/1999/xlink">
	<desc>
			Created with Pixso.
	</desc>
	<defs/>
	<g style="mix-blend-mode:normal">
		<path id="icon" d="M38.54 27.08L27.08 27.08L27.08 38.54C27.08 39.11 26.61 39.58 26.04 39.58L23.95 39.58C23.38 39.58 22.91 39.11 22.91 38.54L22.91 27.08L11.45 27.08C10.88 27.08 10.41 26.61 10.41 26.04L10.41 23.95C10.41 23.38 10.88 22.91 11.45 22.91L22.91 22.91L22.91 11.45C22.91 10.88 23.38 10.41 23.95 10.41L26.04 10.41C26.61 10.41 27.08 10.88 27.08 11.45L27.08 22.91L38.54 22.91C39.11 22.91 39.58 23.38 39.58 23.95L39.58 26.04C39.58 26.61 39.11 27.08 38.54 27.08Z" fill="#272A2D" fill-opacity="0.950000" fill-rule="evenodd"/>
	</g>
</svg>
