<svg width="25.000000" height="25.000000" viewBox="0 0 25 25" fill="none" xmlns="http://www.w3.org/2000/svg" xmlns:xlink="http://www.w3.org/1999/xlink">
	<desc>
			Created with Pixso.
	</desc>
	<defs>
		<clipPath id="clip162_29">
			<rect id="email icon" width="25.000000" height="25.000000" fill="white" fill-opacity="0"/>
		</clipPath>
	</defs>
	<rect id="email icon" width="25.000000" height="25.000000" fill="#FFFFFF" fill-opacity="0"/>
	<g clip-path="url(#clip162_29)">
		<path id="矢量 2" d="M13.54 2.08C7.21 2.08 2.08 7.21 2.08 13.54C2.08 19.86 7.21 24.99 13.54 24.99L19.27 24.99L19.27 22.7L13.54 22.7C8.56 22.7 4.37 18.51 4.37 13.54C4.37 8.56 8.56 4.37 13.54 4.37C18.51 4.37 22.7 8.56 22.7 13.54L22.7 15.17C22.7 16.08 21.89 16.97 20.98 16.97C20.08 16.97 19.27 16.08 19.27 15.17L19.27 13.54C19.27 10.37 16.7 7.81 13.54 7.81C10.37 7.81 7.81 10.37 7.81 13.54C7.81 16.7 10.37 19.27 13.54 19.27C15.12 19.27 16.56 18.62 17.59 17.58C18.34 18.6 19.62 19.27 20.98 19.27C23.24 19.27 24.99 17.43 24.99 15.17L24.99 13.54C24.99 7.21 19.86 2.08 13.54 2.08ZM13.54 16.97C11.63 16.97 10.1 15.44 10.1 13.54C10.1 11.63 11.63 10.1 13.54 10.1C15.44 10.1 16.97 11.63 16.97 13.54C16.97 15.44 15.44 16.97 13.54 16.97Z" fill="#E6E4DC" fill-opacity="1.000000" fill-rule="evenodd"/>
	</g>
</svg>
