<svg width="50.000000" height="50.000000" viewBox="0 0 50 50" fill="none" xmlns="http://www.w3.org/2000/svg" xmlns:xlink="http://www.w3.org/1999/xlink">
	<desc>
			Created with Pixso.
	</desc>
	<defs/>
	<g style="mix-blend-mode:normal">
		<path id="icon" d="M35.78 18.74L27.08 10.05L27.08 18.74L35.78 18.74ZM37.49 41.66L37.49 22.91L23.95 22.91C23.38 22.91 22.91 22.45 22.91 21.87L22.91 8.33L12.49 8.33L12.49 41.66L37.49 41.66ZM10.41 45.83C9.26 45.83 8.33 44.9 8.33 43.74L8.33 6.24C8.33 5.09 9.26 4.16 10.41 4.16L26.66 4.16C26.93 4.16 27.2 4.27 27.39 4.47L41.36 18.43C41.55 18.63 41.66 18.89 41.66 19.17L41.66 43.74C41.66 44.9 40.73 45.83 39.58 45.83L10.41 45.83Z" fill="#F1F3F6" fill-opacity="0.950000" fill-rule="evenodd"/>
	</g>
</svg>
