<svg width="50.000000" height="50.000000" viewBox="0 0 50 50" fill="none" xmlns="http://www.w3.org/2000/svg" xmlns:xlink="http://www.w3.org/1999/xlink">
	<desc>
			Created with Pixso.
	</desc>
	<defs/>
	<path id="icon" d="M29.16 6.75L29.16 9.91C29.16 10.19 29.39 10.41 29.66 10.41L36.64 10.41L18.6 28.45C18.4 28.65 18.4 28.97 18.6 29.16L20.83 31.39C21.02 31.59 21.34 31.59 21.54 31.39L39.58 13.35L39.58 20.33C39.58 20.6 39.8 20.83 40.08 20.83L43.24 20.83C43.52 20.83 43.74 20.6 43.74 20.33L43.74 6.75C43.74 6.47 43.52 6.25 43.24 6.25L29.66 6.25C29.39 6.25 29.16 6.47 29.16 6.75ZM37.49 37.5L12.49 37.5L12.49 12.5L20.33 12.5C20.6 12.5 20.83 12.27 20.83 12L20.83 8.83C20.83 8.55 20.6 8.33 20.33 8.33L9.33 8.33C8.78 8.33 8.33 8.78 8.33 9.33L8.33 40.66C8.33 41.21 8.78 41.66 9.33 41.66L40.66 41.66C41.21 41.66 41.66 41.21 41.66 40.66L41.66 29.66C41.66 29.39 41.44 29.16 41.16 29.16L37.99 29.16C37.72 29.16 37.49 29.39 37.49 29.66L37.49 37.5Z" fill="#F1F3F6" fill-opacity="0.950000" fill-rule="evenodd"/>
</svg>
