<svg width="28.000000" height="28.000000" viewBox="0 0 28 28" fill="none" xmlns="http://www.w3.org/2000/svg" xmlns:xlink="http://www.w3.org/1999/xlink">
	<desc>
			Created with Pixso.
	</desc>
	<defs>
		<clipPath id="clip162_43">
			<rect id="mail send icon" width="28.000000" height="28.000000" fill="white" fill-opacity="0"/>
		</clipPath>
	</defs>
	<rect id="mail send icon" width="28.000000" height="28.000000" fill="#FFFFFF" fill-opacity="0"/>
	<g clip-path="url(#clip162_43)">
		<path id="矢量 105" d="M25.66 23.34C25.66 23.64 25.54 23.94 25.32 24.15C25.1 24.37 24.81 24.49 24.5 24.5L3.49 24.5C3.18 24.49 2.88 24.37 2.67 24.16C2.45 23.94 2.33 23.64 2.33 23.34L2.33 22.16L23.33 22.16L23.33 8.51L14 16.91L2.33 6.41L2.33 4.66C2.33 4.35 2.45 4.06 2.67 3.84C2.89 3.62 3.19 3.5 3.5 3.5L24.5 3.5C24.8 3.5 25.1 3.62 25.32 3.84C25.54 4.06 25.66 4.35 25.66 4.66L25.66 23.34ZM5.17 5.83L14 13.77L22.82 5.83L5.17 5.83ZM0 17.5L9.33 17.5L9.33 19.83L0 19.83L0 17.5ZM0 11.66L5.83 11.66L5.83 14L0 14L0 11.66Z" fill="#E6E4DC" fill-opacity="1.000000" fill-rule="evenodd"/>
	</g>
</svg>
