<svg width="25.000000" height="25.000000" viewBox="0 0 25 25" fill="none" xmlns="http://www.w3.org/2000/svg" xmlns:xlink="http://www.w3.org/1999/xlink">
	<desc>
			Created with Pixso.
	</desc>
	<defs>
		<clipPath id="clip162_34">
			<rect id="phone icon" width="25.000000" height="25.000000" fill="white" fill-opacity="0"/>
		</clipPath>
	</defs>
	<rect id="phone icon" width="25.000000" height="25.000000" fill="#FFFFFF" fill-opacity="0"/>
	<g clip-path="url(#clip162_34)">
		<path id="矢量 71" d="M18.1 11.23L15.81 8.94C15.52 8.65 15.43 8.25 15.55 7.88C15.93 6.71 16.14 5.46 16.14 4.16C16.14 3.59 16.61 3.12 17.18 3.12L20.83 3.12C21.4 3.12 21.87 3.59 21.87 4.16C21.87 13.94 13.94 21.87 4.16 21.87C3.59 21.87 3.12 21.4 3.12 20.83L3.12 17.19C3.12 16.62 3.59 16.15 4.16 16.15C5.45 16.15 6.71 15.94 7.88 15.56C8.25 15.43 8.66 15.53 8.94 15.81L11.23 18.1C14.18 16.59 16.6 14.18 18.1 11.23Z" fill="#E6E4DC" fill-opacity="1.000000" fill-rule="evenodd"/>
	</g>
</svg>
