<svg width="60.000000" height="60.000000" viewBox="0 0 60 60" fill="none" xmlns="http://www.w3.org/2000/svg" xmlns:xlink="http://www.w3.org/1999/xlink">
	<desc>
			Created with Pixso.
	</desc>
	<defs/>
	<g style="mix-blend-mode:normal">
		<path id="icon" d="M30 5C16.2 5 5 16.2 5 30C5 43.8 16.2 55 30 55C43.8 55 55 43.8 55 30C55 16.2 43.8 5 30 5ZM25.87 26.02L23.55 26.02C23.53 26.02 23.51 26.02 23.5 26.02C22.93 25.99 22.5 25.51 22.52 24.94C22.6 23.45 22.9 21.26 24.29 20.03C25.79 18.7 25.88 18.67 26.45 18.45C26.56 18.4 26.7 18.35 26.86 18.29C27.86 17.87 28.99 17.66 30.23 17.66C31.83 17.66 33.17 17.88 34.24 18.32C35.31 18.76 36.17 19.31 36.83 19.96C37.48 20.61 37.95 21.32 38.23 22.08C38.51 22.83 38.65 23.54 38.65 24.19C38.65 25.27 38.51 26.16 38.23 26.86C37.95 27.56 37.6 28.16 37.18 28.66C36.76 29.15 36.3 29.58 35.79 29.93C35.29 30.28 34.81 30.63 34.36 30.98C33.91 31.33 33.5 31.73 33.16 32.18C33.12 32.22 33.08 32.27 33.05 32.31C32.81 32.6 32.6 32.85 32.52 33.95C32.49 34.54 32 35 31.41 35L28.67 35C28.62 35 28.57 34.99 28.52 34.98C27.91 34.9 27.49 34.34 27.58 33.74C27.73 32.64 28.07 32 28.32 31.52C28.38 31.4 28.44 31.3 28.48 31.2C28.79 30.54 29.14 29.98 29.55 29.52C29.96 29.06 30.39 28.66 30.84 28.32C31.29 27.98 31.71 27.64 32.09 27.3C32.47 26.97 32.78 26.59 33.02 26.19C33.26 25.78 33.36 25.27 33.34 24.66C33.34 23.63 33.09 22.86 32.58 22.36C32.07 21.87 31.37 21.62 30.46 21.62C29.86 21.62 29.33 21.74 28.89 21.97C28.45 22.21 28.09 22.53 27.81 22.92C27.53 23.32 27.32 23.78 27.18 24.31C27.13 24.53 27.08 24.76 27.05 24.99C26.97 25.58 26.46 26.02 25.87 26.02ZM28.75 37.5C28.05 37.5 27.5 38.05 27.5 38.75L27.5 41.25C27.5 41.94 28.05 42.5 28.75 42.5L31.25 42.5C31.94 42.5 32.5 41.94 32.5 41.25L32.5 38.75C32.5 38.05 31.94 37.5 31.25 37.5L28.75 37.5ZM10 30C10 41.02 18.97 50 30 50C41.02 50 50 41.02 50 30C50 18.97 41.02 10 30 10C18.97 10 10 18.97 10 30Z" fill="#F1F3F6" fill-opacity="0.950000" fill-rule="evenodd"/>
	</g>
</svg>
