<svg width="37.000000" height="37.000000" viewBox="0 0 37 37" fill="none" xmlns="http://www.w3.org/2000/svg" xmlns:xlink="http://www.w3.org/1999/xlink">
	<desc>
			Created with Pixso.
	</desc>
	<defs>
		<clipPath id="clip162_167">
			<rect id="questionnaire-fill" width="37.000000" height="37.000000" fill="white" fill-opacity="0"/>
		</clipPath>
	</defs>
	<g clip-path="url(#clip162_167)">
		<path id="path" d="M9.95 29.29L3.08 34.68L3.08 6.16C3.08 5.31 3.77 4.62 4.62 4.62L32.37 4.62C33.22 4.62 33.91 5.31 33.91 6.16L33.91 27.75C33.91 28.6 33.22 29.29 32.37 29.29L9.95 29.29ZM16.95 21.58L16.95 24.66L20.04 24.66L20.04 21.58L16.95 21.58ZM13.2 13.58L16.23 14.19C16.44 13.13 17.37 12.33 18.5 12.33C19.77 12.33 20.81 13.36 20.81 14.64C20.81 15.92 19.77 16.95 18.5 16.95L16.95 16.95L16.95 20.04L18.5 20.04C21.48 20.04 23.89 17.62 23.89 14.64C23.89 11.66 21.48 9.25 18.5 9.25C15.88 9.25 13.7 11.11 13.2 13.58Z" fill="#DDE0E5" fill-opacity="1.000000" fill-rule="nonzero"/>
	</g>
</svg>
