<svg width="45.000000" height="45.000000" viewBox="0 0 45 45" fill="none" xmlns="http://www.w3.org/2000/svg" xmlns:xlink="http://www.w3.org/1999/xlink">
	<desc>
			Created with Pixso.
	</desc>
	<defs>
		<clipPath id="clip111_53">
			<rect id="facebook-svgrepo-com" width="45.000000" height="45.000000" fill="white" fill-opacity="0"/>
		</clipPath>
	</defs>
	<g clip-path="url(#clip111_53)">
		<path id="path" d="M22.5 3.82C12.18 3.82 3.75 12.24 3.75 22.61C3.75 31.98 10.61 39.76 19.57 41.17L19.57 28.05L14.81 28.05L14.81 22.61L19.57 22.61L19.57 18.46C19.57 13.76 22.36 11.17 26.66 11.17C28.7 11.17 30.84 11.53 30.84 11.53L30.84 16.16L28.48 16.16C26.15 16.16 25.42 17.6 25.42 19.08L25.42 22.61L30.63 22.61L29.79 28.05L25.42 28.05L25.42 41.17C29.84 40.47 33.86 38.22 36.76 34.81C39.67 31.41 41.26 27.08 41.25 22.61C41.25 12.24 32.81 3.82 22.5 3.82Z" fill="#F1F3F6" fill-opacity="1.000000" fill-rule="nonzero"/>
	</g>
</svg>
