<svg width="45.000000" height="45.000000" viewBox="0 0 45 45" fill="none" xmlns="http://www.w3.org/2000/svg" xmlns:xlink="http://www.w3.org/1999/xlink">
	<desc>
			Created with Pixso.
	</desc>
	<defs>
		<clipPath id="clip111_66">
			<rect id="instagram-svgrepo-com (1)" width="45.000000" height="45.000000" fill="white" fill-opacity="0"/>
		</clipPath>
	</defs>
	<g clip-path="url(#clip111_66)">
		<path id="path" d="M28.75 7.03L16.24 7.03C15.02 7.03 13.85 7.26 12.72 7.73C11.59 8.2 10.59 8.86 9.73 9.73C8.86 10.59 8.2 11.59 7.73 12.72C7.26 13.85 7.03 15.02 7.03 16.24L7.03 28.75C7.03 29.97 7.26 31.14 7.73 32.27C8.2 33.4 8.86 34.4 9.73 35.26C10.59 36.13 11.59 36.79 12.72 37.26C13.85 37.73 15.02 37.96 16.24 37.96L28.75 37.96C29.97 37.96 31.14 37.73 32.27 37.26C33.4 36.79 34.4 36.13 35.26 35.26C36.12 34.4 36.79 33.4 37.26 32.27C37.73 31.14 37.96 29.97 37.96 28.75L37.96 16.24C37.96 15.02 37.73 13.85 37.26 12.72C36.79 11.59 36.13 10.59 35.26 9.73C34.4 8.86 33.4 8.2 32.27 7.73C31.14 7.26 29.97 7.03 28.75 7.03ZM34.85 28.75C34.85 29.56 34.7 30.33 34.39 31.08C34.08 31.83 33.63 32.49 33.06 33.06C32.49 33.64 31.83 34.08 31.08 34.39C30.33 34.7 29.56 34.85 28.75 34.85L16.24 34.85C15.43 34.85 14.65 34.7 13.91 34.39C13.16 34.08 12.5 33.64 11.93 33.06C11.35 32.49 10.91 31.83 10.6 31.08C10.29 30.33 10.14 29.56 10.14 28.75L10.14 16.24C10.14 15.43 10.29 14.65 10.6 13.91C10.91 13.16 11.35 12.5 11.93 11.93C12.5 11.35 13.16 10.91 13.91 10.6C14.65 10.29 15.43 10.14 16.24 10.14L28.75 10.14C29.56 10.14 30.33 10.29 31.08 10.6C31.83 10.91 32.49 11.35 33.06 11.93C33.63 12.5 34.08 13.16 34.39 13.91C34.7 14.66 34.85 15.43 34.85 16.24L34.85 28.75Z" fill="#F1F3F6" fill-opacity="1.000000" fill-rule="nonzero"/>
		<path id="path" d="M22.49 14.5C18.08 14.5 14.5 18.08 14.5 22.5C14.5 26.91 18.08 30.49 22.49 30.49C26.91 30.49 30.49 26.91 30.49 22.5C30.49 18.08 26.91 14.5 22.49 14.5ZM22.49 27.38C21.14 27.38 19.99 26.91 19.04 25.95C18.08 25 17.6 23.84 17.6 22.5C17.6 21.15 18.08 19.99 19.04 19.04C19.99 18.08 21.14 17.61 22.49 17.61C23.84 17.61 24.99 18.09 25.95 19.04C26.9 19.99 27.38 21.15 27.38 22.5C27.38 23.84 26.9 25 25.95 25.95C25 26.9 23.84 27.38 22.49 27.38ZM30.51 12.64C31.04 12.64 31.49 12.83 31.86 13.2C32.24 13.57 32.43 14.03 32.43 14.56C32.43 15.08 32.24 15.54 31.86 15.91C31.49 16.28 31.04 16.47 30.51 16.47C29.98 16.47 29.53 16.29 29.15 15.91C28.78 15.54 28.59 15.09 28.59 14.56C28.59 13.5 29.31 12.64 30.51 12.64Z" fill="#F1F3F6" fill-opacity="1.000000" fill-rule="nonzero"/>
	</g>
</svg>
