<svg width="45.000000" height="45.000000" viewBox="0 0 45 45" fill="none" xmlns="http://www.w3.org/2000/svg" xmlns:xlink="http://www.w3.org/1999/xlink">
	<desc>
			Created with Pixso.
	</desc>
	<defs>
		<clipPath id="clip111_57">
			<rect id="linkedin-svgrepo-com" width="45.000000" height="45.000000" fill="white" fill-opacity="0"/>
		</clipPath>
	</defs>
	<g clip-path="url(#clip111_57)">
		<path id="path" d="M34.38 34.38L29.38 34.38L29.38 26.55C29.38 24.68 29.34 22.27 26.78 22.27C24.17 22.27 23.77 24.31 23.77 26.41L23.77 34.38L18.77 34.38L18.77 18.27L23.57 18.27L23.57 20.47C24.55 18.8 26.44 17.8 28.38 17.87C33.44 17.87 34.38 21.2 34.38 25.54L34.38 34.38ZM13.13 16.07C11.21 16.06 10.24 15.09 10.23 13.17C10.23 11.58 11.54 10.27 13.13 10.27C14.72 10.27 16.03 11.58 16.03 13.17C16.03 14.76 14.72 16.07 13.13 16.07ZM15.63 34.38L10.62 34.38L10.62 18.27L15.63 18.27L15.63 34.38ZM36.87 5.62L8.11 5.62C6.48 5.61 5.65 6.42 5.62 8.06L5.62 36.93C5.65 38.57 6.48 39.38 8.11 39.37L36.87 39.37C38.51 39.38 39.34 38.57 39.37 36.93L39.37 8.05C39.34 6.42 38.5 5.6 36.87 5.62Z" fill="#F1F3F6" fill-opacity="1.000000" fill-rule="nonzero"/>
	</g>
</svg>
