<svg width="45.000000" height="45.000000" viewBox="0 0 45 45" fill="none" xmlns="http://www.w3.org/2000/svg" xmlns:xlink="http://www.w3.org/1999/xlink">
	<desc>
			Created with Pixso.
	</desc>
	<defs>
		<clipPath id="clip111_64">
			<rect id="telegram-svgrepo-com" width="45.000000" height="45.000000" fill="white" fill-opacity="0"/>
		</clipPath>
	</defs>
	<g clip-path="url(#clip111_64)">
		<path id="path" d="M22.5 5C19.03 5 15.65 6.02 12.77 7.94C9.89 9.87 7.65 12.6 6.33 15.8C5 19 4.66 22.51 5.33 25.91C6.01 29.3 7.67 32.42 10.12 34.87C12.57 37.32 15.69 38.98 19.08 39.66C22.48 40.33 25.99 39.99 29.19 38.66C32.39 37.34 35.12 35.1 37.05 32.22C38.97 29.34 40 25.96 40 22.5C40 17.85 38.15 13.4 34.87 10.12C31.59 6.84 27.14 5 22.5 5ZM31.09 16.98L28.23 30.52C28.01 31.49 27.44 31.7 26.63 31.27L22.25 28.03L20.07 30.06C19.96 30.2 19.83 30.31 19.68 30.38C19.53 30.46 19.36 30.5 19.19 30.5L19.5 26.13L27.59 18.8C27.96 18.49 27.59 18.32 27.07 18.62L17.14 24.86L12.76 23.5C11.82 23.22 11.8 22.56 12.96 22.12L29.82 15.56C30.65 15.32 31.35 15.8 31.09 16.98Z" fill="#F1F3F6" fill-opacity="1.000000" fill-rule="nonzero"/>
	</g>
</svg>
