<svg width="45.000000" height="45.000000" viewBox="0 0 45 45" fill="none" xmlns="http://www.w3.org/2000/svg" xmlns:xlink="http://www.w3.org/1999/xlink">
	<desc>
			Created with Pixso.
	</desc>
	<defs>
		<clipPath id="clip111_59">
			<rect id="tiktok-fill-svgrepo-com" width="45.000000" height="45.000000" fill="white" fill-opacity="0"/>
		</clipPath>
	</defs>
	<g clip-path="url(#clip111_59)">
		<path id="path" d="M30.15 12.57C29.08 11.34 28.44 9.74 28.44 8L27.1 8C27.45 9.9 28.58 11.54 30.15 12.57Z" fill="#F1F3F6" fill-opacity="1.000000" fill-rule="nonzero"/>
		<path id="path" d="M17.76 22.44C15.44 22.44 13.55 24.33 13.55 26.65C13.55 28.27 14.47 29.68 15.81 30.38C15.31 29.69 15.01 28.85 15.01 27.92C15.01 25.6 16.9 23.71 19.22 23.71C19.65 23.71 20.07 23.79 20.46 23.91L20.46 18.79C20.06 18.74 19.64 18.7 19.22 18.7C19.14 18.7 19.08 18.71 19 18.71L19 22.64C18.6 22.51 18.19 22.44 17.76 22.44Z" fill="#F1F3F6" fill-opacity="1.000000" fill-rule="nonzero"/>
		<path id="path" d="M33.95 14.81L33.95 18.71C31.35 18.71 28.94 17.88 26.98 16.47L26.98 26.66C26.98 31.74 22.84 35.89 17.76 35.89C15.79 35.89 13.97 35.27 12.47 34.22C14.16 36.02 16.56 37.16 19.22 37.16C24.3 37.16 28.44 33.02 28.44 27.93L28.44 17.74C30.4 19.15 32.81 19.98 35.41 19.98L35.41 14.97C34.9 14.97 34.41 14.92 33.95 14.81Z" fill="#F1F3F6" fill-opacity="1.000000" fill-rule="nonzero"/>
		<path id="path" d="M26.98 26.66L26.98 16.47C28.94 17.88 31.35 18.71 33.95 18.71L33.95 14.81C32.45 14.5 31.13 13.68 30.15 12.57C28.58 11.54 27.45 9.9 27.09 8L23.43 8L23.42 28.09C23.34 30.34 21.48 32.14 19.22 32.14C17.81 32.14 16.57 31.45 15.8 30.39C14.46 29.68 13.54 28.28 13.54 26.66C13.54 24.34 15.43 22.45 17.75 22.45C18.18 22.45 18.6 22.52 18.99 22.64L18.99 18.71C14.01 18.82 10 22.91 10 27.93C10 30.36 10.94 32.56 12.47 34.22C13.97 35.27 15.79 35.89 17.76 35.89C22.84 35.89 26.98 31.74 26.98 26.66Z" fill="#F1F3F6" fill-opacity="1.000000" fill-rule="nonzero"/>
	</g>
</svg>
