<svg width="45.000000" height="45.000000" viewBox="0 0 45 45" fill="none" xmlns="http://www.w3.org/2000/svg" xmlns:xlink="http://www.w3.org/1999/xlink">
	<desc>
			Created with Pixso.
	</desc>
	<defs>
		<clipPath id="clip111_55">
			<rect id="youtube-svgrepo-com" width="45.000000" height="45.000000" fill="white" fill-opacity="0"/>
		</clipPath>
	</defs>
	<g clip-path="url(#clip111_55)">
		<path id="path" d="M39.27 13.85C39.08 13.1 38.69 12.42 38.14 11.87C37.6 11.32 36.91 10.92 36.17 10.72C31.63 10.19 27.06 9.95 22.5 10C17.93 9.95 13.36 10.19 8.82 10.72C8.08 10.92 7.39 11.32 6.85 11.87C6.3 12.42 5.91 13.1 5.72 13.85C5.22 16.64 4.98 19.47 5 22.3C4.98 25.14 5.22 27.98 5.72 30.78C5.92 31.52 6.32 32.19 6.86 32.73C7.41 33.27 8.08 33.65 8.82 33.85C13.36 34.38 17.93 34.62 22.5 34.57C27.06 34.62 31.63 34.38 36.17 33.85C36.91 33.65 37.58 33.27 38.13 32.73C38.67 32.19 39.07 31.52 39.27 30.78C39.77 27.98 40.01 25.14 39.99 22.3C40.01 19.47 39.77 16.64 39.27 13.85ZM18.91 27.52L18.91 17.11L28.07 22.3L18.91 27.52Z" fill="#F1F3F6" fill-opacity="1.000000" fill-rule="nonzero"/>
	</g>
</svg>
