<svg width="978.846191" height="865.538574" viewBox="0 0 978.846 865.539" fill="none" xmlns="http://www.w3.org/2000/svg" xmlns:xlink="http://www.w3.org/1999/xlink">
	<desc>
			Created with Pixso.
	</desc>
	<defs/>
	<path id="path" d="M221.15 201.15L221.15 402.3L234.23 406.92C246.92 410.76 249.23 410 274.23 393.46C313.07 367.69 345.76 356.92 388.84 356.92C413.84 356.92 430 359.23 446.15 364.61C458.07 368.84 469.23 371.53 470.76 370.76C472.69 369.23 473.46 221.15 471.92 150.76L471.15 123.84L445.38 104.61C387.3 61.53 325.38 30.76 256.92 10.38L221.15 0L221.15 201.15Z" fill="#191A1C" fill-opacity="1.000000" fill-rule="nonzero"/>
	<path id="path" d="M221.15 402.3L234.23 406.92C246.92 410.76 249.23 410 274.23 393.46C313.07 367.69 345.76 356.92 388.84 356.92C413.84 356.92 430 359.23 446.15 364.61C458.07 368.84 469.23 371.53 470.76 370.76C472.69 369.23 473.46 221.15 471.92 150.76L471.15 123.84L445.38 104.61C387.3 61.53 325.38 30.76 256.92 10.38L221.15 0L221.15 201.15L221.15 402.3Z" stroke="#000000" stroke-opacity="0" stroke-width="0.133333"/>
	<path id="path" d="M721.15 12.69C650.76 34.23 597.69 60.76 539.61 103.84L509.61 126.15L509.61 185.76L509.61 245.38L530 231.92C572.69 203.07 609.61 193.46 669.61 196.15L696.15 197.3L697.3 217.69C699.61 255.38 683.84 295.38 652.3 332.3C641.92 344.61 633.84 355.76 635 357.3C635.76 358.84 647.69 363.84 661.15 368.46C674.61 372.69 697.3 384.23 711.53 393.84C734.61 409.61 739.23 411.15 749.61 408.07L761.53 404.61L761.53 205C761.53 30 760.76 5 755.76 4.61C752.69 4.23 736.92 7.69 721.15 12.69Z" fill="#191A1C" fill-opacity="1.000000" fill-rule="nonzero"/>
	<path id="path" d="M539.61 103.84L509.61 126.15L509.61 185.76L509.61 245.38L530 231.92C572.69 203.07 609.61 193.46 669.61 196.15L696.15 197.3L697.3 217.69C699.61 255.38 683.84 295.38 652.3 332.3C641.92 344.61 633.84 355.76 635 357.3C635.76 358.84 647.69 363.84 661.15 368.46C674.61 372.69 697.3 384.23 711.53 393.84C734.61 409.61 739.23 411.15 749.61 408.07L761.53 404.61L761.53 205C761.53 30 760.76 5 755.76 4.61C752.69 4.23 736.92 7.69 721.15 12.69C650.76 34.23 597.69 60.76 539.61 103.84Z" stroke="#000000" stroke-opacity="0" stroke-width="0.133333"/>
	<path id="path" d="M114.23 70C111.15 74.61 110 380.76 112.69 428.46L114.61 460L141.92 468.07C176.92 478.07 195 480.76 200 477.3C202.3 475.38 207.69 467.69 212.3 460L220.76 445.76L212.3 440.76C207.69 438.07 199.23 433.07 193.46 430.38L182.69 425L182.69 248.46L182.69 72.3L172.3 71.92C166.15 71.92 151.53 70.38 139.23 68.84C124.61 66.92 115.76 67.69 114.23 70Z" fill="#191A1C" fill-opacity="1.000000" fill-rule="nonzero"/>
	<path id="path" d="M112.69 428.46L114.61 460L141.92 468.07C176.92 478.07 195 480.76 200 477.3C202.3 475.38 207.69 467.69 212.3 460L220.76 445.76L212.3 440.76C207.69 438.07 199.23 433.07 193.46 430.38L182.69 425L182.69 248.46L182.69 72.3L172.3 71.92C166.15 71.92 151.53 70.38 139.23 68.84C124.61 66.92 115.76 67.69 114.23 70C111.15 74.61 110 380.76 112.69 428.46Z" stroke="#000000" stroke-opacity="0" stroke-width="0.133333"/>
	<path id="path" d="M833.84 69.23L801.92 73.07L801.15 250L800 427.3L784.61 432.69C762.69 440.38 761.53 442.69 771.92 461.53C780.38 476.53 782.3 478.07 795.38 477.69C803.46 477.3 823.46 473.07 840.38 468.46L871.15 459.61L871.15 262.3C871.15 153.46 870 65 868.46 65C866.53 65.38 851.15 67.3 833.84 69.23Z" fill="#191A1C" fill-opacity="1.000000" fill-rule="nonzero"/>
	<path id="path" d="M801.92 73.07L801.15 250L800 427.3L784.61 432.69C762.69 440.38 761.53 442.69 771.92 461.53C780.38 476.53 782.3 478.07 795.38 477.69C803.46 477.3 823.46 473.07 840.38 468.46L871.15 459.61L871.15 262.3C871.15 153.46 870 65 868.46 65C866.53 65.38 851.15 67.3 833.84 69.23L801.92 73.07Z" stroke="#000000" stroke-opacity="0" stroke-width="0.133333"/>
	<path id="path" d="M1.15 339.61L1.92 545.38L81.92 545C174.23 544.23 184.23 543.07 185.76 530.76C187.3 520.76 182.69 518.46 124.23 503.07C101.53 497.3 81.15 491.15 79.23 489.61C76.15 488.07 75 431.15 75 313.07L75 138.84L60.76 136.15C52.69 135 35.76 133.84 23.07 133.84L0 133.84L1.15 339.61Z" fill="#191A1C" fill-opacity="1.000000" fill-rule="nonzero"/>
	<path id="path" d="M1.92 545.38L81.92 545C174.23 544.23 184.23 543.07 185.76 530.76C187.3 520.76 182.69 518.46 124.23 503.07C101.53 497.3 81.15 491.15 79.23 489.61C76.15 488.07 75 431.15 75 313.07L75 138.84L60.76 136.15C52.69 135 35.76 133.84 23.07 133.84L0 133.84L1.15 339.61L1.92 545.38Z" stroke="#000000" stroke-opacity="0" stroke-width="0.133333"/>
	<path id="path" d="M908.84 312.3L907.69 489.61L863.46 501.53C839.23 508.46 814.61 515 808.84 516.15C800.38 517.69 798.07 520.38 798.07 527.69C798.07 533.46 801.15 539.23 805.38 541.53C810 543.84 846.15 545.38 895.76 545.38L978.84 545.38L978.84 339.23L978.84 133.46L944.23 134.23L909.61 135.38L908.84 312.3Z" fill="#191A1C" fill-opacity="1.000000" fill-rule="nonzero"/>
	<path id="path" d="M907.69 489.61L863.46 501.53C839.23 508.46 814.61 515 808.84 516.15C800.38 517.69 798.07 520.38 798.07 527.69C798.07 533.46 801.15 539.23 805.38 541.53C810 543.84 846.15 545.38 895.76 545.38L978.84 545.38L978.84 339.23L978.84 133.46L944.23 134.23L909.61 135.38L908.84 312.3L907.69 489.61Z" stroke="#000000" stroke-opacity="0" stroke-width="0.133333"/>
	<path id="path" d="M594.23 239.23C564.23 250.76 559.23 253.46 545 267.69C528.46 284.23 518.46 308.46 514.61 340.38C511.92 363.84 512.69 364.23 548.84 356.53C576.53 350.76 588.07 344.23 612.69 320.76C637.3 297.69 647.69 278.84 650.76 252.69L653.07 233.84L630.38 233.84C618.07 234.23 601.53 236.53 594.23 239.23Z" fill="#191A1C" fill-opacity="1.000000" fill-rule="nonzero"/>
	<path id="path" d="M545 267.69C528.46 284.23 518.46 308.46 514.61 340.38C511.92 363.84 512.69 364.23 548.84 356.53C576.53 350.76 588.07 344.23 612.69 320.76C637.3 297.69 647.69 278.84 650.76 252.69L653.07 233.84L630.38 233.84C618.07 234.23 601.53 236.53 594.23 239.23C564.23 250.76 559.23 253.46 545 267.69Z" stroke="#000000" stroke-opacity="0" stroke-width="0.133333"/>
	<path id="path" d="M364.91 411.87C300.29 421.17 241.07 475.09 223.37 540.16C206.45 603.38 229.53 698.2 276.45 756.95C324.52 816.82 383.75 851.78 446.83 856.98C462.21 858.1 474.13 860.7 472.98 862.19C471.83 864.05 479.52 865.53 490.29 865.53C500.67 865.53 510.67 863.67 511.82 861.82C512.98 859.58 522.21 858.1 532.21 858.1C582.97 858.1 629.13 835.79 679.12 787.44C721.05 746.91 737.97 719.4 754.12 666.59C785.27 565.45 746.43 460.21 664.89 424.52C603.74 397.74 534.9 407.04 465.67 450.92C417.21 481.78 394.52 508.55 378.75 553.92C364.52 595.2 374.52 646.51 404.91 684.81C442.6 732.04 519.52 742.08 574.13 707.5C621.82 677 631.82 613.05 594.51 575.86C578.74 560.24 552.21 551.32 533.75 555.41C512.21 560.61 495.67 571.4 489.13 584.78C479.13 605.24 489.13 622.34 502.21 607.09C504.9 604.12 512.59 601.52 519.13 601.52C528.36 601.52 532.98 604.12 537.98 612.3C546.44 626.43 546.44 637.22 536.82 649.86C526.82 663.62 509.52 669.94 489.9 667.34C469.13 664.73 456.06 655.06 445.29 634.61C427.21 601.52 439.9 552.81 476.06 518.97C509.13 488.1 538.36 479.18 588.36 485.87C636.82 492.57 664.12 510.79 682.59 549.46C696.82 578.83 696.43 620.85 681.82 665.48C663.74 720.51 626.82 760.3 569.13 787.44C539.13 801.95 537.21 802.32 497.59 802.32C464.9 802.32 451.44 800.46 429.52 793.39C345.29 765.88 290.29 687.04 289.91 592.22C289.53 541.28 304.14 503.72 336.06 472.86C351.45 457.98 396.83 434.93 416.06 432.32C424.14 431.58 436.83 429.72 443.75 428.98C463.36 426.38 462.21 424.52 437.98 418.19C406.83 410.01 387.98 408.53 364.91 411.87Z" fill="#191A1C" fill-opacity="1.000000" fill-rule="nonzero"/>
	<path id="path" d="M223.37 540.16C206.45 603.38 229.53 698.2 276.45 756.95C324.52 816.82 383.75 851.78 446.83 856.98C462.21 858.1 474.13 860.7 472.98 862.19C471.83 864.05 479.52 865.53 490.29 865.53C500.67 865.53 510.67 863.67 511.82 861.82C512.98 859.58 522.21 858.1 532.21 858.1C582.97 858.1 629.13 835.79 679.12 787.44C721.05 746.91 737.97 719.4 754.12 666.59C785.27 565.45 746.43 460.21 664.89 424.52C603.74 397.74 534.9 407.04 465.67 450.92C417.21 481.78 394.52 508.55 378.75 553.92C364.52 595.2 374.52 646.51 404.91 684.81C442.6 732.04 519.52 742.08 574.13 707.5C621.82 677 631.82 613.05 594.51 575.86C578.74 560.24 552.21 551.32 533.75 555.41C512.21 560.61 495.67 571.4 489.13 584.78C479.13 605.24 489.13 622.34 502.21 607.09C504.9 604.12 512.59 601.52 519.13 601.52C528.36 601.52 532.98 604.12 537.98 612.3C546.44 626.43 546.44 637.22 536.82 649.86C526.82 663.62 509.52 669.94 489.9 667.34C469.13 664.73 456.06 655.06 445.29 634.61C427.21 601.52 439.9 552.81 476.06 518.97C509.13 488.1 538.36 479.18 588.36 485.87C636.82 492.57 664.12 510.79 682.59 549.46C696.82 578.83 696.43 620.85 681.82 665.48C663.74 720.51 626.82 760.3 569.13 787.44C539.13 801.95 537.21 802.32 497.59 802.32C464.9 802.32 451.44 800.46 429.52 793.39C345.29 765.88 290.29 687.04 289.91 592.22C289.53 541.28 304.14 503.72 336.06 472.86C351.45 457.98 396.83 434.93 416.06 432.32C424.14 431.58 436.83 429.72 443.75 428.98C463.36 426.38 462.21 424.52 437.98 418.19C406.83 410.01 387.98 408.53 364.91 411.87C300.29 421.17 241.07 475.09 223.37 540.16Z" stroke="#000000" stroke-opacity="0" stroke-width="0.133333"/>
</svg>
