<svg width="1001.610352" height="993.461182" viewBox="0 0 1001.61 993.461" fill="none" xmlns="http://www.w3.org/2000/svg" xmlns:xlink="http://www.w3.org/1999/xlink">
	<desc>
			Created with Pixso.
	</desc>
	<defs/>
	<path id="path" d="M226.29 228.4L226.29 456.8L239.67 462.04C252.66 466.4 255.02 465.53 280.6 446.75C320.35 417.49 353.81 405.27 397.88 405.27C423.47 405.27 440 407.89 456.53 414C468.73 418.8 480.14 421.86 481.71 420.99C483.68 419.24 484.47 251.11 482.89 171.19L482.11 140.62L455.74 118.78C396.31 69.87 332.95 34.93 262.89 11.79L226.29 0L226.29 228.4Z" fill="#DDE0E5" fill-opacity="1.000000" fill-rule="nonzero"/>
	<path id="path" d="M226.29 456.8L239.67 462.04C252.66 466.4 255.02 465.53 280.6 446.75C320.35 417.49 353.81 405.27 397.88 405.27C423.47 405.27 440 407.89 456.53 414C468.73 418.8 480.14 421.86 481.71 420.99C483.68 419.24 484.47 251.11 482.89 171.19L482.11 140.62L455.74 118.78C396.31 69.87 332.95 34.93 262.89 11.79L226.29 0L226.29 228.4L226.29 456.8Z" stroke="#000000" stroke-opacity="0" stroke-width="0.133333"/>
	<path id="path" d="M737.92 14.41C665.9 38.86 611.59 69 552.16 117.91L521.46 143.24L521.46 210.93L521.46 278.62L542.32 263.33C586.01 230.58 623.79 219.66 685.18 222.72L712.34 224.03L713.52 247.18C715.88 289.97 699.75 335.39 667.47 377.32C656.85 391.29 648.58 403.96 649.76 405.7C650.55 407.45 662.75 413.13 676.53 418.37C690.3 423.17 713.52 436.27 728.08 447.19C751.7 465.09 756.42 466.84 767.04 463.35L779.24 459.42L779.24 232.76C779.24 34.06 778.46 5.67 773.34 5.24C770.19 4.8 754.06 8.73 737.92 14.41Z" fill="#DDE0E5" fill-opacity="1.000000" fill-rule="nonzero"/>
	<path id="path" d="M552.16 117.91L521.46 143.24L521.46 210.93L521.46 278.62L542.32 263.33C586.01 230.58 623.79 219.66 685.18 222.72L712.34 224.03L713.52 247.18C715.88 289.97 699.75 335.39 667.47 377.32C656.85 391.29 648.58 403.96 649.76 405.7C650.55 407.45 662.75 413.13 676.53 418.37C690.3 423.17 713.52 436.27 728.08 447.19C751.7 465.09 756.42 466.84 767.04 463.35L779.24 459.42L779.24 232.76C779.24 34.06 778.46 5.67 773.34 5.24C770.19 4.8 754.06 8.73 737.92 14.41C665.9 38.86 611.59 69 552.16 117.91Z" stroke="#000000" stroke-opacity="0" stroke-width="0.133333"/>
	<path id="path" d="M116.88 79.48C113.73 84.72 112.55 432.34 115.31 486.49L117.28 522.3L145.22 531.47C181.03 542.83 199.53 545.89 204.65 541.96C207.01 539.77 212.52 531.04 217.24 522.3L225.9 506.15L217.24 500.47C212.52 497.41 203.86 491.73 197.96 488.68L186.94 482.56L186.94 282.11L186.94 82.1L176.31 81.66C170.01 81.66 155.06 79.91 142.46 78.17C127.51 75.98 118.46 76.86 116.88 79.48Z" fill="#DDE0E5" fill-opacity="1.000000" fill-rule="nonzero"/>
	<path id="path" d="M115.31 486.49L117.28 522.3L145.22 531.47C181.03 542.83 199.53 545.89 204.65 541.96C207.01 539.77 212.52 531.04 217.24 522.3L225.9 506.15L217.24 500.47C212.52 497.41 203.86 491.73 197.96 488.68L186.94 482.56L186.94 282.11L186.94 82.1L176.31 81.66C170.01 81.66 155.06 79.91 142.46 78.17C127.51 75.98 118.46 76.86 116.88 79.48C113.73 84.72 112.55 432.34 115.31 486.49Z" stroke="#000000" stroke-opacity="0" stroke-width="0.133333"/>
	<path id="path" d="M853.23 78.6L820.57 82.97L819.78 283.86L818.6 485.18L802.86 491.3C780.42 500.03 779.24 502.65 789.87 524.05C798.53 541.08 800.5 542.83 813.88 542.39C822.14 541.96 842.61 537.15 859.92 531.91L891.41 521.87L891.41 297.83C891.41 174.24 890.23 73.8 888.65 73.8C886.69 74.24 870.94 76.42 853.23 78.6Z" fill="#DDE0E5" fill-opacity="1.000000" fill-rule="nonzero"/>
	<path id="path" d="M820.57 82.97L819.78 283.86L818.6 485.18L802.86 491.3C780.42 500.03 779.24 502.65 789.87 524.05C798.53 541.08 800.5 542.83 813.88 542.39C822.14 541.96 842.61 537.15 859.92 531.91L891.41 521.87L891.41 297.83C891.41 174.24 890.23 73.8 888.65 73.8C886.69 74.24 870.94 76.42 853.23 78.6L820.57 82.97Z" stroke="#000000" stroke-opacity="0" stroke-width="0.133333"/>
	<path id="path" d="M1.18 385.61L1.96 619.25L83.82 618.82C178.28 617.94 188.51 616.63 190.08 602.66C191.66 591.3 186.94 588.68 127.12 571.22C103.9 564.67 83.04 557.68 81.07 555.93C77.92 554.18 76.74 489.55 76.74 355.48L76.74 157.65L62.18 154.59C53.91 153.28 36.6 151.97 23.61 151.97L0 151.97L1.18 385.61Z" fill="#DDE0E5" fill-opacity="1.000000" fill-rule="nonzero"/>
	<path id="path" d="M1.96 619.25L83.82 618.82C178.28 617.94 188.51 616.63 190.08 602.66C191.66 591.3 186.94 588.68 127.12 571.22C103.9 564.67 83.04 557.68 81.07 555.93C77.92 554.18 76.74 489.55 76.74 355.48L76.74 157.65L62.18 154.59C53.91 153.28 36.6 151.97 23.61 151.97L0 151.97L1.18 385.61L1.96 619.25Z" stroke="#000000" stroke-opacity="0" stroke-width="0.133333"/>
	<path id="path" d="M929.98 354.61L928.8 555.93L883.54 569.47C858.74 577.33 833.56 584.75 827.65 586.06C818.99 587.81 816.63 590.87 816.63 599.17C816.63 605.72 819.78 612.27 824.11 614.89C828.83 617.51 865.83 619.25 916.6 619.25L1001.61 619.25L1001.61 385.18L1001.61 151.53L966.19 152.41L930.77 153.72L929.98 354.61Z" fill="#DDE0E5" fill-opacity="1.000000" fill-rule="nonzero"/>
	<path id="path" d="M928.8 555.93L883.54 569.47C858.74 577.33 833.56 584.75 827.65 586.06C818.99 587.81 816.63 590.87 816.63 599.17C816.63 605.72 819.78 612.27 824.11 614.89C828.83 617.51 865.83 619.25 916.6 619.25L1001.61 619.25L1001.61 385.18L1001.61 151.53L966.19 152.41L930.77 153.72L929.98 354.61L928.8 555.93Z" stroke="#000000" stroke-opacity="0" stroke-width="0.133333"/>
	<path id="path" d="M608.05 271.63C577.35 284.73 572.23 287.79 557.67 303.95C540.75 322.73 530.52 350.24 526.58 386.49C523.82 413.13 524.61 413.56 561.61 404.83C589.94 398.28 601.75 390.85 626.94 364.21C652.12 338.01 662.75 316.61 665.9 286.92L668.26 265.52L645.04 265.52C632.45 265.95 615.52 268.57 608.05 271.63Z" fill="#DDE0E5" fill-opacity="1.000000" fill-rule="nonzero"/>
	<path id="path" d="M557.67 303.95C540.75 322.73 530.52 350.24 526.58 386.49C523.82 413.13 524.61 413.56 561.61 404.83C589.94 398.28 601.75 390.85 626.94 364.21C652.12 338.01 662.75 316.61 665.9 286.92L668.26 265.52L645.04 265.52C632.45 265.95 615.52 268.57 608.05 271.63C577.35 284.73 572.23 287.79 557.67 303.95Z" stroke="#000000" stroke-opacity="0" stroke-width="0.133333"/>
	<path id="path" d="M373.39 539.8C307.28 549.09 246.67 603.01 228.57 668.08C211.25 731.3 234.87 826.12 282.88 884.88C332.07 944.74 392.68 979.7 457.22 984.9C472.96 986.02 485.16 988.62 483.98 990.11C482.8 991.97 490.67 993.46 501.69 993.46C512.31 993.46 522.55 991.6 523.73 989.74C524.91 987.51 534.35 986.02 544.58 986.02C596.53 986.02 643.76 963.71 694.92 915.37C737.81 874.84 755.13 847.32 771.66 794.52C803.54 693.37 763.79 588.14 680.36 552.44C617.78 525.66 547.34 534.96 476.5 578.84C426.92 609.7 403.7 636.48 387.56 681.84C373 723.12 383.23 774.43 414.32 812.74C452.89 859.96 531.6 870 587.48 835.42C636.28 804.93 646.51 740.97 608.34 703.78C592.2 688.16 565.05 679.24 546.16 683.33C524.12 688.54 507.2 699.32 500.51 712.71C490.28 733.16 500.51 750.26 513.89 735.02C516.64 732.04 524.51 729.44 531.2 729.44C540.65 729.44 545.37 732.04 550.49 740.22C559.15 754.35 559.15 765.14 549.31 777.78C539.08 791.54 521.37 797.86 501.3 795.26C480.04 792.66 466.66 782.99 455.64 762.54C437.15 729.44 450.13 680.73 487.13 646.89C520.97 616.03 550.88 607.1 602.04 613.79C651.63 620.49 679.57 638.71 698.46 677.38C713.02 706.76 712.63 748.78 697.67 793.4C679.18 848.43 641.4 888.22 582.36 915.37C551.67 929.87 549.7 930.24 509.17 930.24C475.71 930.24 461.94 928.38 439.51 921.32C353.32 893.8 297.05 814.97 296.65 720.14C296.26 669.2 311.21 631.64 343.88 600.78C359.62 585.9 406.06 562.85 425.73 560.25C434 559.5 446.99 557.64 454.07 556.9C474.14 554.3 472.96 552.44 448.17 546.12C416.29 537.94 397.01 536.45 373.39 539.8Z" fill="#DDE0E5" fill-opacity="1.000000" fill-rule="nonzero"/>
	<path id="path" d="M228.57 668.08C211.25 731.3 234.87 826.12 282.88 884.88C332.07 944.74 392.68 979.7 457.22 984.9C472.96 986.02 485.16 988.62 483.98 990.11C482.8 991.97 490.67 993.46 501.69 993.46C512.31 993.46 522.55 991.6 523.73 989.74C524.91 987.51 534.35 986.02 544.58 986.02C596.53 986.02 643.76 963.71 694.92 915.37C737.81 874.84 755.13 847.32 771.66 794.52C803.54 693.37 763.79 588.14 680.36 552.44C617.78 525.66 547.34 534.96 476.5 578.84C426.92 609.7 403.7 636.48 387.56 681.84C373 723.12 383.23 774.43 414.32 812.74C452.89 859.96 531.6 870 587.48 835.42C636.28 804.93 646.51 740.97 608.34 703.78C592.2 688.16 565.05 679.24 546.16 683.33C524.12 688.54 507.2 699.32 500.51 712.71C490.28 733.16 500.51 750.26 513.89 735.02C516.64 732.04 524.51 729.44 531.2 729.44C540.65 729.44 545.37 732.04 550.49 740.22C559.15 754.35 559.15 765.14 549.31 777.78C539.08 791.54 521.37 797.86 501.3 795.26C480.04 792.66 466.66 782.99 455.64 762.54C437.15 729.44 450.13 680.73 487.13 646.89C520.97 616.03 550.88 607.1 602.04 613.79C651.63 620.49 679.57 638.71 698.46 677.38C713.02 706.76 712.63 748.78 697.67 793.4C679.18 848.43 641.4 888.22 582.36 915.37C551.67 929.87 549.7 930.24 509.17 930.24C475.71 930.24 461.94 928.38 439.51 921.32C353.32 893.8 297.05 814.97 296.65 720.14C296.26 669.2 311.21 631.64 343.88 600.78C359.62 585.9 406.06 562.85 425.73 560.25C434 559.5 446.99 557.64 454.07 556.9C474.14 554.3 472.96 552.44 448.17 546.12C416.29 537.94 397.01 536.45 373.39 539.8C307.28 549.09 246.67 603.01 228.57 668.08Z" stroke="#000000" stroke-opacity="0" stroke-width="0.133333"/>
</svg>
